<svg viewBox="0 0 600 150" version="1.1" xmlns="http://www.w3.org/2000/svg" xmlns:xlink="http://www.w3.org/1999/xlink">
  <path d="
  M 0,0
  m 30,0   l 0,100   h 10   l 40,-100   h -10   l -30,75   l 0,-75   z
  M 45,0
  m 30,0   m 25,0   l -45,100   h 10   l 13.5,-30   h 15   l 1.5,30   h 10   l -5,-100   z   m -6,30    l -13,30   h 14   l -1,-30   z
  M 100,0
  m 30,0   l -20,100   h 50   l 2,-10   h -40   l 18,-90   z
  M 155,0
  m 30,0   l -20,100   h 50   l 2,-10   h -40   l 7,-35   h 35   l 2,-10   h -35   l 7,-35   h 35   l 2,-10   z
  M 210,0
  m 30,0   l -20,100   h 10   l 16,-80   l 14,80   h 10   l 20,-100   h -10   l -16,80   l -14,-80   z
  M 265,0
  m 30,0   h 50   l -2,10   h -20   l -18,90   h -10   l 18,-90   h -20   z
  M 315,0
  m 30,0   m 10,0   h 30   l -2,10   h -10   l -16,80   h 10   l -2,10   h -30   l 2,-10   h 10   l 16,-80   h -10   z
  M 365,0
  m 30,0   l -20,100   h 10   l 16,-80   l 14,80   h 10   l 20,-100   h -10   l -16,80   l -14,-80   z
  M 420,0
  m 30,0   l -20,100   h 50   l 2,-10   h -40   l 7,-35   h 35   l 2,-10   h -35   l 7,-35   h 35   l 2,-10   z
  " fill-rule="evenodd" fill="#ffffff" stroke="none" />
</svg>
