<svg version="1.1" xmlns="http://www.w3.org/2000/svg" xmlns:xlink="http://www.w3.org/1999/xlink" width="137.86168"
  height="20.65713" viewBox="0,0,137.86168,20.65713">
  <g transform="translate(-170.69416,-169.67143)">
    <g stroke-miterlimit="10">
      <g>
        <path
          d="M203.14867,186.29997h-1.39285v-16.3714l1.39285,-0.25714v5.87142c0.45714,-0.17143 0.92142,-0.30358 1.39285,-0.39643c0.47143,-0.09285 0.94286,-0.13928 1.41429,-0.13928c0.30211,-0.00112 0.60402,0.01598 0.90407,0.05121c0.30728,0.03728 0.59064,0.095 0.85007,0.17314c0.13202,0.03952 0.26179,0.08623 0.38871,0.13993c0.57143,0.24286 1.02857,0.58929 1.37142,1.03929c0.34285,0.45 0.58214,0.98928 0.71786,1.61785c0.07876,0.37003 0.13373,0.74472 0.16457,1.12178c0.02646,0.31824 0.03948,0.63745 0.039,0.95679v6.19284h-1.39286v-5.74284c0.0005,-0.27773 -0.007,-0.55541 -0.0225,-0.83272c-0.02515,-0.43414 -0.07121,-0.82085 -0.13821,-1.16014c-0.04007,-0.20776 -0.09551,-0.41224 -0.16586,-0.61178c-0.09814,-0.27414 -0.22143,-0.51306 -0.36985,-0.71678c-0.25,-0.34285 -0.58214,-0.58929 -0.99642,-0.73928c-0.41429,-0.15 -0.93572,-0.225 -1.56429,-0.225c-0.15078,0.00034 -0.30145,0.00793 -0.4515,0.02272c-0.11059,0.01074 -0.22084,0.0246 -0.33064,0.04157c-0.27857,0.04285 -0.53929,0.08929 -0.78215,0.13929c-0.24286,0.05 -0.46071,0.10357 -0.65357,0.16071c-0.03902,0.01158 -0.07794,0.02344 -0.11678,0.03557c-0.10457,0.03257 -0.18129,0.05928 -0.23014,0.08014c-0.00948,0.00401 -0.01884,0.0083 -0.02808,0.01286zM285.36996,175.22142h1.47857c0.15715,0.68571 0.35714,1.425 0.6,2.21786c0.24286,0.79285 0.51786,1.61071 0.825,2.45356c0.30714,0.84285 0.64643,1.70713 1.01785,2.59285c0.37142,0.88572 0.77143,1.75714 1.2,2.61428c0.18901,-0.53175 0.37152,-1.06579 0.54749,-1.602c0.09859,-0.30091 0.19467,-0.60262 0.28822,-0.90514c0.24286,-0.78571 0.46786,-1.56786 0.675,-2.34643c0.20714,-0.77857 0.40714,-1.575 0.6,-2.38928c0.19286,-0.81428 0.39643,-1.69286 0.61071,-2.63571h1.39285c-0.45714,2.07142 -0.97857,4.08571 -1.56428,6.04285c-0.58571,1.95714 -1.22143,3.75 -1.90714,5.37857c-0.11254,0.26754 -0.23273,0.53178 -0.36043,0.79242c-0.15614,0.31772 -0.31457,0.60715 -0.47528,0.86829c-0.14166,0.23203 -0.30045,0.45315 -0.47507,0.6615c-0.14621,0.17424 -0.30623,0.3364 -0.4785,0.48492c-0.35375,0.30119 -0.76584,0.52617 -1.21049,0.66086c-0.00364,0.00115 -0.00729,0.0023 -0.01093,0.00343c-0.418,0.12857 -0.90264,0.19929 -1.45392,0.21215c-0.06178,0.00143 -0.12357,0.00214 -0.18536,0.00214c-0.1864,0.00065 -0.37259,-0.01216 -0.55714,-0.03836c-0.14123,-0.02026 -0.28085,-0.05041 -0.41786,-0.09022c-0.05111,-0.0149 -0.10211,-0.03019 -0.153,-0.04586c-0.15715,-0.04857 -0.271,-0.08878 -0.34157,-0.12064c-0.01777,-0.00779 -0.03509,-0.01659 -0.05186,-0.02636l0.27857,-1.15714c0.01616,0.01155 0.03329,0.02166 0.05122,0.03021c0.06014,0.02986 0.15657,0.066 0.28929,0.10843c0.04706,0.01497 0.09428,0.02948 0.14164,0.0435c0.26428,0.07857 0.53929,0.11786 0.825,0.11786c0.4,0 0.76071,-0.04286 1.08214,-0.12857c0.32143,-0.08571 0.61071,-0.23215 0.86785,-0.43928c0.16297,-0.13254 0.31125,-0.28218 0.44229,-0.44636c0.09156,-0.11406 0.1764,-0.23333 0.25414,-0.35721c0.161,-0.25543 0.31986,-0.56264 0.47657,-0.92164c0.04638,-0.10637 0.09109,-0.21346 0.13414,-0.32121c-0.47143,-0.87142 -0.92499,-1.77857 -1.36071,-2.72143c-0.43572,-0.94286 -0.84286,-1.89642 -1.22143,-2.8607c-0.37857,-0.96429 -0.725,-1.92857 -1.03929,-2.89285c-0.28749,-0.87917 -0.54464,-1.76799 -0.77099,-2.66485c-0.01457,-0.05811 -0.029,-0.11626 -0.04329,-0.17443zM235.89147,186.29997v-10.69284c0.39543,-0.109 0.92093,-0.23108 1.5765,-0.36622c0.03163,-0.00653 0.06328,-0.01303 0.09493,-0.0195c0.53429,-0.109 1.16006,-0.17643 1.87735,-0.20228c0.23127,-0.00815 0.46267,-0.01216 0.69407,-0.012c0.29726,-0.0011 0.59432,0.01599 0.8895,0.05121c0.30286,0.03743 0.58229,0.09521 0.83828,0.17336c0.13011,0.03952 0.25795,0.08617 0.38293,0.13972c0.3204,0.13516 0.61855,0.31793 0.88436,0.54214c0.1733,0.14779 0.32949,0.31456 0.46564,0.49715c0.23451,0.31775 0.4202,0.66877 0.55093,1.04142c0.06717,0.18862 0.12291,0.38111 0.16692,0.57643c0.08288,0.36962 0.1408,0.74439 0.17336,1.12178c0.02781,0.31817 0.04147,0.63741 0.04093,0.95679v6.19284h-1.39285v-5.74284c0.0005,-0.27773 -0.00701,-0.55541 -0.0225,-0.83272c-0.02515,-0.43414 -0.07121,-0.82085 -0.13821,-1.16014c-0.04007,-0.20776 -0.0955,-0.41224 -0.16586,-0.61178c-0.09814,-0.27414 -0.22143,-0.51306 -0.36986,-0.71678c-0.25,-0.34285 -0.57857,-0.58929 -0.98571,-0.73928c-0.40714,-0.15 -0.91785,-0.225 -1.53214,-0.225c-0.23394,-0.00029 -0.46786,0.00471 -0.70157,0.015c-0.36885,0.01686 -0.70285,0.04757 -1.00199,0.09214c-0.09679,0.01438 -0.19344,0.02967 -0.28993,0.04586c-0.31657,0.05343 -0.53064,0.10242 -0.64221,0.147v9.72855zM261.22,186.29997v-10.69284c0.39543,-0.109 0.92093,-0.23108 1.5765,-0.36622c0.03163,-0.00653 0.06327,-0.01303 0.09492,-0.0195c0.53429,-0.109 1.16007,-0.17643 1.87736,-0.20228c0.23127,-0.00815 0.46266,-0.01216 0.69407,-0.012c0.29726,-0.0011 0.59433,0.01599 0.8895,0.05121c0.30286,0.03743 0.58228,0.09521 0.83828,0.17336c0.13011,0.03952 0.25795,0.08617 0.38293,0.13972c0.3204,0.13516 0.61855,0.31793 0.88436,0.54214c0.1733,0.14779 0.32949,0.31456 0.46564,0.49715c0.23451,0.31775 0.42019,0.66877 0.55093,1.04142c0.06717,0.18862 0.12291,0.38111 0.16693,0.57643c0.08288,0.36962 0.14079,0.74439 0.17336,1.12178c0.02781,0.31817 0.04147,0.63741 0.04093,0.95679v6.19284h-1.39285v-5.74284c0.0005,-0.27773 -0.00701,-0.55541 -0.0225,-0.83272c-0.02515,-0.43414 -0.07121,-0.82085 -0.13822,-1.16014c-0.04007,-0.20776 -0.0955,-0.41224 -0.16585,-0.61178c-0.09814,-0.27414 -0.22143,-0.51306 -0.36986,-0.71678c-0.25,-0.34285 -0.57857,-0.58929 -0.98571,-0.73928c-0.40714,-0.15 -0.91786,-0.225 -1.53214,-0.225c-0.23394,-0.00029 -0.46785,0.00471 -0.70157,0.015c-0.36885,0.01686 -0.70285,0.04757 -1.002,0.09214c-0.09679,0.01438 -0.19343,0.02967 -0.28992,0.04586c-0.31657,0.05343 -0.53065,0.10242 -0.64222,0.147v9.72855zM254.36287,170.05715l-0.27857,1.2c-0.05244,-0.02353 -0.10577,-0.04504 -0.15986,-0.0645c-0.10857,-0.03957 -0.23886,-0.08022 -0.39085,-0.12193c-0.04846,-0.01327 -0.09704,-0.02612 -0.14572,-0.03857c-0.30714,-0.07857 -0.69642,-0.11785 -1.16785,-0.11785c-0.25447,-0.00164 -0.50864,0.01793 -0.75986,0.0585c-0.59686,0.10071 -1.04714,0.33122 -1.35085,0.6915c-0.16805,0.2052 -0.29849,0.43851 -0.38529,0.68914c-0.16457,0.45314 -0.24685,1.02343 -0.24685,1.71086v1.15714h4.45713v1.17857h-4.45713v9.89998h-1.39285v-12.27855c-0.00239,-0.40827 0.02856,-0.81605 0.09257,-1.21928c0.07029,-0.426 0.18079,-0.80879 0.3315,-1.14836c0.14147,-0.32547 0.33476,-0.62588 0.57236,-0.8895c0.35969,-0.38667 0.81255,-0.67463 1.31528,-0.83635c0.502,-0.171 1.08857,-0.2565 1.75971,-0.2565c0.41543,0 0.77778,0.02228 1.08707,0.06685c0.12802,0.01795 0.25511,0.04213 0.38079,0.07243c0.07677,0.01873 0.15327,0.03852 0.2295,0.05936c0.21714,0.05971 0.37372,0.11451 0.46972,0.16436c0.01365,0.00704 0.02702,0.01461 0.04007,0.02272zM188.55584,171.45h10.97141v1.26428h-4.75714v13.58569h-1.45714v-13.58569h-4.75714zM307.99849,175.49999l-0.32143,1.24286c-0.17143,-0.08571 -0.46072,-0.2 -0.86786,-0.34285c-0.36757,-0.129 -0.88942,-0.19972 -1.56557,-0.21215c-0.07457,-0.0014 -0.14914,-0.00212 -0.22371,-0.00214c-0.21762,-0.00059 -0.43495,0.0161 -0.64993,0.04993c-0.08029,0.01278 -0.16012,0.02828 -0.23936,0.0465c-0.15857,0.03593 -0.31335,0.08695 -0.46221,0.15236c-0.09585,0.04235 -0.18846,0.0917 -0.27707,0.14764c-0.21429,0.13572 -0.38571,0.30714 -0.51428,0.51428c-0.07821,0.12805 -0.13266,0.26917 -0.16072,0.41657c-0.02203,0.11338 -0.03279,0.22865 -0.03214,0.34415c-0.00068,0.12273 0.01008,0.24526 0.03214,0.366c0.02551,0.14144 0.07249,0.27817 0.13929,0.40543c0.08553,0.15837 0.19684,0.3014 0.32936,0.42321c0.05532,0.05144 0.11348,0.09973 0.17421,0.14465c0.20486,0.152 0.45258,0.29485 0.74315,0.42857c0.02364,0.01087 0.04736,0.02158 0.07114,0.03214c0.16037,0.07124 0.32124,0.14138 0.48257,0.21043c0.19385,0.083 0.40085,0.17 0.62099,0.261c0.36437,0.14547 0.7258,0.29821 1.08407,0.45814c0.04942,0.02213 0.09878,0.04442 0.14807,0.06686c0.26015,0.11716 0.50928,0.25736 0.74443,0.41893c0.10158,0.07021 0.19996,0.14493 0.29486,0.22393c0.3,0.25 0.54285,0.55 0.72857,0.9c0.18572,0.35 0.27857,0.78928 0.27857,1.31785c0.00378,0.33021 -0.04417,0.65897 -0.14208,0.97436c-0.17055,0.53159 -0.51727,0.98912 -0.98292,1.29708c-0.35716,0.23969 -0.75074,0.42001 -1.1655,0.534c-0.345,0.099 -0.72299,0.167 -1.13399,0.204c-0.25787,0.02276 -0.51663,0.03391 -0.7755,0.03343c-0.26837,0.00058 -0.5367,-0.00664 -0.80464,-0.02164c-0.50272,-0.02943 -0.92271,-0.0885 -1.26,-0.17721c-0.05505,-0.01444 -0.10971,-0.0303 -0.16393,-0.04757c-0.11142,-0.03552 -0.22256,-0.07188 -0.33343,-0.10907c-0.33215,-0.11172 -0.56385,-0.20036 -0.69514,-0.26593l0.36428,-1.26428c0.01152,0.00758 0.02331,0.01472 0.03536,0.02142c0.05057,0.02843 0.13165,0.06772 0.24322,0.11786c0.04901,0.02193 0.09852,0.04272 0.1485,0.06236c0.11971,0.04728 0.26307,0.09793 0.43007,0.15193c0.24286,0.07857 0.53214,0.14643 0.86785,0.20357c0.15625,0.02621 0.31353,0.0458 0.47143,0.05872c0.21515,0.018 0.44729,0.027 0.69643,0.027c0.27865,0.0012 0.55704,-0.01706 0.83314,-0.05464c0.28743,-0.04043 0.55121,-0.10336 0.79135,-0.18878c0.12234,-0.04338 0.24179,-0.09448 0.35765,-0.153c0.44329,-0.22472 0.69814,-0.58107 0.76457,-1.06907c0.01195,-0.08958 0.01781,-0.17985 0.01757,-0.27022c0,-0.3 -0.04643,-0.55714 -0.13928,-0.77142c-0.06318,-0.14347 -0.1501,-0.27525 -0.25714,-0.38979c-0.06297,-0.06801 -0.13102,-0.13112 -0.20358,-0.18878c-0.09398,-0.07442 -0.19245,-0.14298 -0.29486,-0.20529c-0.09985,-0.06157 -0.20914,-0.12207 -0.32785,-0.1815c-0.07381,-0.03695 -0.14839,-0.07231 -0.22371,-0.10607c-0.14239,-0.06383 -0.28518,-0.12676 -0.42836,-0.18878c-0.12871,-0.05586 -0.26536,-0.11443 -0.40993,-0.17571c-0.15251,-0.06471 -0.30522,-0.12892 -0.45814,-0.19264c-0.30129,-0.12444 -0.59999,-0.25504 -0.89593,-0.39171c-0.09454,-0.04373 -0.18876,-0.08817 -0.28264,-0.13329c-0.24028,-0.1146 -0.4712,-0.24786 -0.69064,-0.39857c-0.10147,-0.07007 -0.19992,-0.14443 -0.29507,-0.22286c-0.28571,-0.23572 -0.51429,-0.51785 -0.68572,-0.84643c-0.17143,-0.32857 -0.25714,-0.72857 -0.25714,-1.2c-0.00477,-0.38277 0.06624,-0.76271 0.20893,-1.11793c0.17622,-0.41791 0.45433,-0.78501 0.80892,-1.06779c0.36885,-0.29705 0.79501,-0.5148 1.25185,-0.63964c0.33443,-0.096 0.70093,-0.15672 1.0995,-0.18214c0.14817,-0.00938 0.2966,-0.01403 0.44507,-0.01393c0.545,0 1.0215,0.03329 1.4295,0.09986c0.14986,0.02407 0.29852,0.0551 0.4455,0.093c0.37157,0.097 0.65993,0.18578 0.86507,0.26635c0.05916,0.02294 0.11729,0.04847 0.17422,0.0765zM279.79854,171.70714v3.51428h4.41427v1.17857h-4.41427v5.89284c-0.00041,0.2023 0.00595,0.40456 0.01907,0.60643c0.01286,0.19085 0.03222,0.36743 0.05807,0.52971c0.02072,0.1334 0.04862,0.2656 0.08357,0.396c0.03553,0.13255 0.08014,0.2625 0.1335,0.38893c0.09,0.21057 0.19906,0.3845 0.32721,0.52179c0.2,0.21429 0.44286,0.35714 0.72857,0.42857c0.18203,0.04485 0.36732,0.07523 0.55415,0.09086c0.12928,0.01105 0.25897,0.01648 0.38871,0.01628c0.1841,0.00055 0.36815,-0.00709 0.55157,-0.02292c0.169,-0.01514 0.32536,-0.03779 0.46907,-0.06793c0.13396,-0.02724 0.26556,-0.06494 0.39364,-0.11272c0.10461,-0.03962 0.20855,-0.08098 0.31178,-0.12407c0.19772,-0.08285 0.36307,-0.16129 0.49607,-0.23529c0.00932,-0.00516 0.0186,-0.01038 0.02786,-0.01565l0.34285,1.15715c-0.06169,0.03895 -0.12551,0.07443 -0.19115,0.10629c-0.20542,0.10143 -0.49171,0.21242 -0.85886,0.33299c-0.5,0.16429 -1.04285,0.24643 -1.62856,0.24643c-0.24208,0.00078 -0.48403,-0.01181 -0.72472,-0.03771c-0.24714,-0.02743 -0.47572,-0.06993 -0.68572,-0.1275c-0.1065,-0.02896 -0.21148,-0.06321 -0.31457,-0.10264c-0.26695,-0.10027 -0.51588,-0.24312 -0.73714,-0.423c-0.14031,-0.11553 -0.26685,-0.24683 -0.37714,-0.39129c-0.16891,-0.22372 -0.30527,-0.47024 -0.405,-0.73221c-0.07844,-0.20413 -0.14008,-0.41432 -0.18429,-0.62849c-0.11428,-0.54285 -0.17142,-1.18571 -0.17142,-1.92857v-10.19999zM222.5415,181.04998h-7.77856c0.01058,0.41003 0.05546,0.81846 0.13415,1.221c0.08843,0.43843 0.21922,0.83142 0.39236,1.17899c0.12912,0.262 0.29059,0.50676 0.48064,0.72857c0.3408,0.38687 0.77875,0.67568 1.26857,0.83657c0.32157,0.11214 0.68064,0.1875 1.07721,0.22607c0.21745,0.02062 0.43578,0.03071 0.65421,0.03021c0.22146,0.00047 0.44287,-0.00654 0.66386,-0.021c0.43786,-0.02957 0.80635,-0.09078 1.1055,-0.18364c0.01023,-0.00315 0.02045,-0.00638 0.03064,-0.00965c0.1035,-0.03328 0.20665,-0.06764 0.30943,-0.10307c0.28657,-0.09914 0.50486,-0.18622 0.65485,-0.26122l0.25714,1.2c-0.2,0.11428 -0.575,0.24999 -1.125,0.40714c-0.55,0.15715 -1.19643,0.23572 -1.93928,0.23572c-0.37224,0.00146 -0.74415,-0.02218 -1.11321,-0.07072c-0.50786,-0.06885 -0.96535,-0.18814 -1.37249,-0.35786c-0.41083,-0.16814 -0.79579,-0.39359 -1.14343,-0.66964c-0.19902,-0.15956 -0.38293,-0.3371 -0.54942,-0.53036c-0.39213,-0.45918 -0.69131,-0.99015 -0.88093,-1.56343c-0.03008,-0.08884 -0.05787,-0.17844 -0.08335,-0.26871c-0.2,-0.70714 -0.3,-1.48215 -0.3,-2.325c0,-0.90314 0.12036,-1.69821 0.36107,-2.38521c0.01812,-0.05165 0.03705,-0.10301 0.05678,-0.15407c0.13816,-0.36271 0.30961,-0.71183 0.51214,-1.04292c0.16825,-0.27413 0.36273,-0.53126 0.58071,-0.76779c0.35586,-0.3895 0.77943,-0.71121 1.25014,-0.9495c0.09582,-0.04798 0.19347,-0.09222 0.29272,-0.13264c0.57857,-0.23572 1.175,-0.35357 1.78928,-0.35357c0.49313,-0.00477 0.9843,0.06288 1.45778,0.20079c0.68873,0.20396 1.30771,0.59425 1.78864,1.12778c0.35683,0.40123 0.6308,0.86905 0.80614,1.37657c0.14957,0.41343 0.25772,0.87614 0.32443,1.38814c0.05528,0.44052 0.08205,0.88416 0.08015,1.32814c0,0.11428 -0.00357,0.22857 -0.01072,0.34285c-0.00423,0.06877 -0.0101,0.13744 -0.01758,0.20593c-0.00424,0.03857 -0.0091,0.07708 -0.01457,0.1155zM230.66291,186.29997v-14.84997h1.45714v14.84997zM257.53429,175.22142v11.07855h-1.39285v-11.07855zM274.80569,175.22142v11.07855h-1.39285v-11.07855zM214.8058,179.87141h6.34285c-0.00675,-0.35431 -0.04237,-0.70747 -0.1065,-1.05599c-0.12628,-0.664 -0.36221,-1.212 -0.70779,-1.644c-0.41391,-0.5202 -1.01738,-0.85485 -1.67786,-0.93043c-0.1683,-0.02303 -0.33799,-0.03434 -0.50786,-0.03385c-0.25296,-0.00145 -0.5052,0.02696 -0.75149,0.08464c-0.20373,0.04836 -0.40104,0.12064 -0.58779,0.21535c-0.39285,0.2 -0.73572,0.46786 -1.02857,0.80358c-0.2859,0.33006 -0.51141,0.7079 -0.66621,1.11621c-0.00662,0.01717 -0.01311,0.03438 -0.0195,0.05164c-0.16429,0.44286 -0.26072,0.90714 -0.28929,1.39285zM296.89851,170.01429h1.54285v0.81428c0,0.71429 -0.03929,1.43928 -0.11786,2.175c-0.07857,0.73572 -0.18214,1.46785 -0.31071,2.19642h-0.70714c-0.11428,-0.72857 -0.21071,-1.46071 -0.28929,-2.19642c-0.07857,-0.73572 -0.11786,-1.46785 -0.11786,-2.19642zM257.81437,172.21628c0.02843,-0.11029 0.04233,-0.22382 0.04135,-0.33771c0.00036,-0.08297 -0.00674,-0.1658 -0.02121,-0.2475c-0.0331,-0.20353 -0.13085,-0.391 -0.27878,-0.53465c-0.2,-0.19286 -0.44286,-0.28928 -0.72857,-0.28928c-0.28571,0 -0.52857,0.09642 -0.72857,0.28928c-0.12576,0.12129 -0.21531,0.27517 -0.25865,0.44443c-0.02843,0.11029 -0.04233,0.22382 -0.04135,0.33772c-0.00036,0.08297 0.00674,0.1658 0.02121,0.2475c0.0331,0.20353 0.13085,0.391 0.27878,0.53465c0.2,0.19286 0.44286,0.28929 0.72857,0.28929c0.28571,0 0.52857,-0.09643 0.72857,-0.28929c0.12576,-0.12129 0.21531,-0.27517 0.25865,-0.44443zM275.08576,172.21628c0.02843,-0.11029 0.04234,-0.22382 0.04136,-0.33771c0.00036,-0.08297 -0.00674,-0.1658 -0.02121,-0.2475c-0.0331,-0.20353 -0.13085,-0.391 -0.27879,-0.53465c-0.2,-0.19286 -0.44286,-0.28928 -0.72857,-0.28928c-0.28571,0 -0.52857,0.09642 -0.72857,0.28928c-0.12576,0.12129 -0.21531,0.27517 -0.25865,0.44443c-0.02843,0.11029 -0.04234,0.22382 -0.04136,0.33772c-0.00036,0.08297 0.00674,0.1658 0.02121,0.2475c0.0331,0.20353 0.13085,0.391 0.27879,0.53465c0.2,0.19286 0.44286,0.28929 0.72857,0.28929c0.28571,0 0.52857,-0.09643 0.72857,-0.28929c0.12576,-0.12129 0.21531,-0.27517 0.25864,-0.44443z"
          fill="#ffffff" fill-rule="evenodd" stroke="none" stroke-width="0" stroke-linecap="round" />
        <g fill="none" fill-rule="nonzero" stroke="#ffffff" stroke-linecap="butt">
          <path
            d="M171.44416,179.99999c0,-4.29849 3.48462,-7.78311 7.78311,-7.78311c4.29849,0 7.78311,3.48462 7.78311,7.78311c0,4.29849 -3.48462,7.78311 -7.78311,7.78311c-4.29849,0 -7.78311,-3.48462 -7.78311,-7.78311z"
            stroke-width="1.5" />
          <path
            d="M179.22728,179.99999c0,1.35257 -1.72906,2.44904 -3.86195,2.44904c-2.1329,0 -3.86195,-1.09647 -3.86195,-2.44904c0,-1.35257 1.72906,-2.44904 3.86195,-2.44904c2.1329,0 3.86195,1.09647 3.86195,2.44904z"
            stroke-width="0.5" />
          <path
            d="M186.95118,179.99999c0,1.35257 -1.72906,2.44904 -3.86195,2.44904c-2.1329,0 -3.86195,-1.09647 -3.86195,-2.44904c0,-1.35257 1.72906,-2.44904 3.86195,-2.44904c2.1329,0 3.86195,1.09647 3.86195,2.44904z"
            stroke-width="0.5" />
        </g>
      </g>
    </g>
  </g>
</svg>