<svg version="1.1" xmlns="http://www.w3.org/2000/svg" xmlns:xlink="http://www.w3.org/1999/xlink" width="398.75"
  height="189.95368" viewBox="0,0,398.75,189.95368">
  <g transform="translate(-37.5,-86.16228)">
    <g fill="none" stroke="#ffffff" stroke-linecap="round" stroke-miterlimit="10">
      <g>
        <path
          d="M148.58334,113.58334c0,0 9.8802,-22.63686 4.16666,-25.66667c-9.87396,-5.23604 -50.83334,18.5 -50.83334,18.5"
          stroke-width="2" />
        <path
          d="M148.16667,118.83334c0,0 6.03253,5.61548 9.20551,7.84832c2.77296,1.95134 9.46116,5.15169 9.46116,5.15169l-10.66667,3c0,0 2.58156,7.06874 4.48934,10.30138c2.0777,3.52054 9.17733,10.69862 9.17733,10.69862c0,0 -4.67656,1 -7,1c-2.54521,0 -6.66667,-2 -6.66667,-2l2.66667,6.66666"
          stroke-width="2" />
        <path
          d="M38.5,92.45238c0,0 23.2036,10.01386 34.79327,12.14108c10.94482,2.00886 32.92101,0.28749 32.92101,0.28749"
          stroke-width="2" />
        <path
          d="M39.5,92.88095c0,0 3.41002,18.20458 6.0911,26.67116c2.74594,8.6714 10.62318,24.04313 10.62318,24.04313c0,0 5.76904,1.43529 6.71429,4.42857c0.94524,2.99328 -4.14285,3.71428 -4.14285,3.71428c0,0 10.7672,11.33423 17.33763,14.11047c6.93381,2.92978 14.07377,3.7025 23.2338,3.03239c9.16003,-0.67011 25.14285,-6.57143 25.14285,-6.57143"
          stroke-width="2" />
        <path
          d="M99.83334,167.5c0,0 -33.18139,42.28 -10.08688,73.99705c21.06696,42.10589 101.75355,26.33628 101.75355,26.33628"
          stroke-width="2" />
        <path
          d="M154.16667,166.16236c0,0 -20.56126,23.34068 -29.26666,34.53334c-8.3944,10.79279 -22.49524,34.32381 -22.49524,34.32381c0,0 4.32798,-14.11465 9.85108,-21.51643c7.65566,-10.25974 42.56436,-33.60155 41.67273,-25.95975c2.62,5.27114 -19.36336,34.4209 -20.23809,45.19048c-1.94871,23.99219 18.14285,12.42857 18.14285,12.42857"
          stroke-width="2" />
        <path
          d="M203.21429,222.30522c0,0 -9.40635,17.38876 -20.06718,21.03166c-7.16281,2.20394 -21.16065,4.41107 -23.78996,-4.17452c-2.62931,-8.58559 -2.30615,-22.68283 8,-32c10.30615,-9.31717 18.54651,-2.4326 19.57143,3.28572c1.02492,5.71831 -4.93865,13.10228 -9.33401,15.33344c-4.92516,2.50009 -18.80885,-1.04772 -18.80885,-1.04772"
          stroke-width="2" />
        <path d="M210.16667,165.16667l30,0.33334" stroke-width="2" />
        <path
          d="M228,166.16667c0,0 -7.77647,71.4132 -13.16666,76c-2.78018,7.53476 -20.66667,7.5 -20.66667,7.5l38,-0.83333"
          stroke-width="2" />
        <path
          d="M276.16667,234.54167c0,0 -8.88112,6.68209 -11.91667,3.83334c-3.03555,-2.84876 -1.91275,-8.51459 -4.33333,-19.08334c-2.51216,-10.96862 -12.78391,0.00406 -15.67266,5.43663c-2.67872,5.03759 -4.57735,21.06337 -4.57735,21.06337l4.83334,-33.66666"
          stroke-width="2" />
        <path d="M277.83333,215.375l21.83333,-2.33334" stroke-width="2" />
        <path
          d="M290.43528,244.54167c0,0 -2.25092,-55.97613 8.79943,-71.05441c6.88732,-9.39778 14.20056,-1.44559 14.20056,-1.44559"
          stroke-width="2" />
        <path d="M314.5,200.04167l3.66667,2.83334" stroke-width="2" />
        <path d="M313.5,222.375l-1.33333,24.66666" stroke-width="2" />
        <path
          d="M329.5,221.20834l-0.66667,25c0,0 1.1497,-23.14099 12,-28c3.98345,-1.78387 4.8108,17.15395 5.33014,22.88574c0.09184,1.01362 1.33652,1.61425 1.33652,1.61425"
          stroke-width="2" />
        <path d="M357.58334,205.08334l1.83333,1.33333" stroke-width="2" />
        <path d="M359.08334,229.75l-0.83333,20.83334" stroke-width="2" />
        <path
          d="M370.75,223.41667c0,0 10.82711,0.16745 14.23846,-0.25897c1.94934,-0.24366 4.42821,-2.07435 4.42821,-2.07435"
          stroke-width="2" />
        <path
          d="M386.41667,210.75c0,0 -7.57008,9.96346 -9.18949,16.24146c-2.23461,8.66293 -2.97717,30.92521 -2.97717,30.92521"
          stroke-width="2" />
        <path
          d="M395.91667,225.08334c0,0 3.60996,7.66356 5.71171,10.42587c1.70231,2.23731 5.95495,4.90746 5.95495,4.90746"
          stroke-width="2" />
        <path
          d="M417.58334,220.25c0,0 -9.86105,19.63128 -19.98347,27.98474c-7.9963,6.59889 -20.9891,21.52602 -43.38522,26.19095c-22.39612,4.66492 -6.29798,-15.84235 -6.29798,-15.84235"
          stroke-width="2" />
        <path d="M435.08334,215.58334l-8,7.83333" stroke-width="2" />
        <path
          d="M435.25,231.91667c0,0 -8.59402,2.72547 -8.39394,7.39395c0.20008,4.66847 8.62609,0.84046 7.71212,5.18182c-0.91397,4.34135 -9.65151,4.75758 -9.65151,4.75758"
          stroke-width="2" />
        <path d="M198.58334,112.75c0,0 3.85486,-1.05745 5.82496,-1.08559c1.91735,-0.02739 5.8417,0.91893 5.8417,0.91893"
          stroke-width="2" />
        <path
          d="M184.25,124.75c0,0 18.07716,10.51987 34.8554,11.42375c16.77824,0.90388 14.6446,-8.75709 14.6446,-8.75709"
          stroke-width="2" />
        <path
          d="M216.75,99.58334c0,0 1.34445,12.97089 -8.11628,21.66167c-9.46072,8.69077 -24.21706,8.005 -24.21706,8.005c0,0 25.79,25.63898 38.03216,3.6775c13.51877,-24.2516 -5.03216,-30.51084 -5.03216,-30.51084"
          stroke-width="2" />
        <path
          d="M193.29167,119.45834c-0.69222,0.01907 -11.27239,-2.45467 -11.375,-3.29167c-0.07373,-0.60146 12.64527,-4.85519 13.04167,-3.91666c0.15556,0.36831 -8.95779,8.10117 -9.04167,8.33334c-0.14165,0.39204 1.16898,-11.06489 2,-11c0.78396,-0.30504 5.82591,9.54611 5.375,9.875z"
          stroke-width="1" />
      </g>
    </g>
  </g>
</svg>