<svg viewBox="0 0 780 100" version="1.1" xmlns="http://www.w3.org/2000/svg" xmlns:xlink="http://www.w3.org/1999/xlink">
  <path d="
  M 0,0
  m30,0h50l-2,10h-20l-18,90h-10l18,-90h-20z
  M 55,0
  m30,0l-20,100h10l9,-45h30l-9,45h10l20,-100h-10l-9,45h-30l9,-45z
  M 115,0
  m 30,0   l -20,100   h 50   l 2,-10   h -40   l 7,-35   h 35   l 2,-10   h -35   l 7,-35   h 35   l 2,-10   z
  M 205,0
  m 30,0   m 10,0   h 30   l -2,10   h -10   l -16,80   h 10   l -2,10   h -30   l 2,-10   h 10   l 16,-80   h -10   z
  M 260,0
  m 30,0   l -20,100   h 10   l 16,-80   l 14,80   h 10   l 20,-100   h -10   l -16,80   l -14,-80   z
  M 320,0
  m 30,0   l -20,100   h 10   l 10,-50   h 35   l 2,-10   h -35   l 6,-30   h 35   l 2,-10   h -45   z
  M 370,0
  m 30,0   m 10,0   h 30   l -2,10   h -10   l -16,80   h 10   l -2,10   h -30   l 2,-10   h 10   l 16,-80   h -10   z
  M 425,0
  m 30,0   l -20,100   h 10   l 16,-80   l 14,80   h 10   l 20,-100   h -10   l -16,80   l -14,-80   z
  M 480,0
  m 30,0   m 10,0   h 30   l -2,10   h -10   l -16,80   h 10   l -2,10   h -30   l 2,-10   h 10   l 16,-80   h -10   z
  M 535,0
  m 30,0   h 50   l -2,10   h -20   l -18,90   h -10   l 18,-90   h -20   z
  M 595,0
  m 30,0   l 10,50   l -10,50   h 10   l 10,-50   l 30,-50   h -10   l -22.5,37.5   l -7.5,-37.5   z
  M 635,0
  m30,0m20,0h10l-4,20h-10z
  M 680,0
  m 30,0   m 10,0   h 30   l 8,10   l -5,25   h-10   l 4,-20   l -4,-5   h -20   l -6,5   l -5,25   l 4,5   h 25   l 8,10   l -7,35   l -12,10   h -30   l -8,-10   l 5,-25   h 10   l -4,20   l 4,5   h 20   l 6,-5   l 5,-25   l -4,-5   h -25   l -8,-10   l 7,-35   z
  " fill-rule="evenodd" fill="#ffffff" stroke="none" />
</svg>